<?xml version="1.0" encoding="UTF-8"?>
<svg id="apple" data-name="Warstwa 2" xmlns="http://www.w3.org/2000/svg" viewBox="0 0 143.33 149.39">
  <defs>
    <style>
      .cls-1 {
        fill: #d78937;
      }
    </style>
  </defs>
  <g id="Warstwa_1-2" data-name="Warstwa 1">
    <g>
      <path class="cls-1" d="m6.11,143.81c3.1-2.55,6.52-3.16,9.72-3.19,12.84-.11,25.49-2.91,38.35-2.42,3.34.13,6.64.24,9.92.96,7.09,1.56,14.24,1.71,21.32.13,12.44-2.78,24.8-2.1,37.17.36,2.77.55,5.58.93,8.39,1.31,1.61.22,2.38-.41,2.46-2.22.31-6.49-.05-12.97-.07-19.46-.13-31.99-.08-63.98-.1-95.97,0-2.17.03-4.33-.06-6.5-.16-3.83-.48-4.25-4.44-4.32-6.5-.1-13.02-.32-19.49.13-7.17.51-14.32.38-21.47.41-19.83.06-39.66-.01-59.48.01-3.5,0-7,.06-10.49.35-5.09.42-5.41.98-5.77,6.12-1.36,19.63-1.15,39.28-1.07,58.94.04,11.67-1.17,23.27-2.25,34.86-.71,7.63-.3,15.32-1.44,22.92-.15.98-.09,2-.22,2.99-.08.65-.32,1.32-1.12,1.44-1,.15-1.59-.44-1.82-1.3-.21-.79-.26-1.64-.29-2.47-.3-10.49-.37-20.98-.93-31.46-.74-13.81-.61-27.64-1.17-41.45C1.03,46.05.56,28.08.04,10.1c-.04-1.5-.07-3,0-4.5.15-3.11.32-3.42,3.55-3.41,15.82.09,31.63-.36,47.46.63,11.45.72,22.94,1.96,34.43,1.42,16.78-.79,33.6-1.21,50.25-3.79.16-.03.33-.06.49-.08,6.67-.94,7.08-.61,7.07,6.2-.02,15.16.19,30.33-.21,45.48-.42,15.97-1.4,31.92-2.66,47.85-.66,8.29-.78,16.62-1.19,24.94-.3,5.99-.63,11.97-1.03,17.95-.21,3.11-.47,3.43-3.59,3.51-5.16.13-10.33.06-15.49.06-6.66,0-13.33.01-19.99,0-13.83-.05-27.62.8-41.42,1.65-11.8.73-23.62,1-35.44,1.37-4.66.14-11.32-2.23-16.16-5.57Z"/>
      <path class="cls-1" d="m98.84,21.09c-9.69.05-15.46,5.76-19.78,13.6-.16.29-.21.63-.35.93-.49,1.01-.72,2.65-2.14,2.33-1.74-.39-1.3-2.02-1.03-3.33.07-.32.17-.66.34-.93,4.89-7.78,10.39-14.81,20.56-15.52,3.48-.24,6.99-.18,10.49-.08,2.5.07,3.32,1.04,3,3.48-.35,2.65-1.19,5.22-2.53,7.54-1.92,3.31-3.98,6.54-6.1,9.72-1.23,1.84-3.04,3.14-5.08,3.92-3.11,1.18-6.29,2.17-9.46,3.16-1.46.46-3.05.52-4.39-.27-2.43-1.44-4.4-.8-6.35.9-.6.52-1.43.84-2.2,1.08-.86.27-1.66-.02-2.15-.83-.6-.99.03-1.64.81-1.99,8.06-3.66,12.96-11.38,20.39-15.84,1.7-1.02,3.18-2.41,4.79-3.59,1.16-.85,2.63-2.47,3.83-1.09,1.36,1.57-.68,2.59-1.75,3.44-3.26,2.59-6.61,5.06-9.91,7.59-1.72,1.31-3.48,2.58-5.08,4.02-.82.74-1.84,1.76-1.03,3.02.61.95,1.82.88,2.75.57,3.16-1.04,6.3-2.15,9.41-3.34.74-.28,1.51-.87,1.95-1.52,2.57-3.88,5.34-7.67,7.47-11.78,1.9-3.66.77-5.03-3.46-5.17-1-.03-2,0-3,0Z"/>
      <path class="cls-1" d="m69.3,44.8c-1.32-1.19-1.29-2.05-1.26-2.86.12-3.06-1.05-5.15-4.19-5.88-.48-.11-.92-.38-1.35-.63-2.35-1.34-3.14-3.04-2.26-4.81.71-1.43,2.67-1.85,4.89-1.04,3.72,1.34,6.51,6.04,5.81,10.07-.28,1.59-.97,3.1-1.63,5.14Z"/>
      <path class="cls-1" d="m112.91,82.11c-.52-7.05-3.03-13.56-5.46-20.15-3.06-8.3-18.09-16.42-27.22-11.83-.98.49-2.15,1.36-3.24.37-1.7-1.55-3.35-1.02-5.06-.17-1.6.79-3.22.53-4.89.24-5.25-.89-10.5-1.81-15.88-1.53-5.68.29-10.9,1.86-14.92,6.03-5.53,5.73-9.76,12.29-11,20.33-.71,4.6-1.5,9.22-1.14,14.44-.95,7.1,1.51,13.91,4.94,20.53,1.33,2.56,3.25,4.62,4.97,6.86,11.96,15.61,30.07,18.29,46.76,13.9,3.73-.98,7.07-2.86,9.92-5.59,2.4-2.3,4.91-4.51,7.48-6.63,5.16-4.25,8.67-9.63,10.95-15.84,2.47-6.76,4.34-13.69,3.8-20.97Zm-12.24,27.23c-1.41,2.3-3.27,4.19-5.29,5.94-1.51,1.31-3.23,2.41-4.56,3.88-6.32,6.92-14.34,9.29-23.14,9.06-24.09,1.23-42.44-22.52-38.95-44.32.45-2.79.9-5.58,1.42-8.35,1.3-6.98,4.94-12.75,9.96-17.5,4.36-4.12,10.09-4.81,15.86-4.41,2.64.19,5.23.94,7.86,1.34,3.46.53,6.93.96,10.33-.41,1.06-.43,2.11-.92,3.07.43,1.15,1.63,2.57.85,3.99.2,7.07-3.23,16.78-.2,20.62,6.81,8.74,15.94,8.36,31.78-1.16,47.34Z"/>
      <path class="cls-1" d="m40.97,76.12c-.7-6.25,3.19-9.87,7.37-13.31.54-.44,1.24-.49,1.83-.06.66.48.51,1.17.26,1.8-.56,1.44-1.61,2.53-2.79,3.44-2.88,2.23-4.11,5.09-3.63,8.7.04.33.08.67.03.99-.23,1.64.92,4.49-1.49,4.46-2.14-.03-1.35-2.92-1.59-4.63-.07-.49-.01-.99-.01-1.39Z"/>
    </g>
  </g>
</svg>