<?xml version="1.0" encoding="UTF-8"?>
<svg id="logo" data-name="Warstwa 1" xmlns="http://www.w3.org/2000/svg" viewBox="0 0 694.89 411.11">
  <defs>
    <style>
      .cls-1 {
        fill: #fff;
      }

      .cls-2 {
        fill: #d78937;
      }

      .cls-3 {
        fill: #e60c87;
      }

      .cls-4 {
        fill: #6cbe35;
      }

      .cls-5 {
        fill: #35b3c9;
      }
    </style>
  </defs>
  <path class="cls-4" d="m198.58,167.62c3.29-3.35,6.95-3.89,10.5-4.04,6.49-.27,12.96-.71,19.44-1.21,3.65-.28,7.3-.58,10.95-.89,6.32-.54,12.68-.46,18.9.92,7.48,1.66,14.91,1.34,22.29-.36,9.59-2.2,19.11-2.14,28.74-.2,4.05.82,8.17,1.58,12.38,1.43,3.71-.13,3.81-.18,3.98-4.04.04-1,.02-2,.02-3,.01-18.16.04-36.32.03-54.48,0-19.81-.04-39.62-.1-59.43-.02-5.84-.07-5.9-5.74-5.9-33.99-.01-67.98-.02-101.97.05-3.48,0-6.96.6-10.44.9-1.79.15-2.74,1.03-2.68,2.88.01.5-.02,1-.03,1.5-.18,20.65-1.66,41.28-1.05,61.94.29,9.67-.87,19.28-1.72,28.9-.78,8.78-1.61,17.58-1.56,26.42,0,1.32-.18,2.65-.46,3.94-.14.63-.75,1.07-1.52,1.03-.73-.03-1.39-.35-1.53-1.03-.24-1.13-.36-2.3-.37-3.45-.1-16.32-.92-32.63-1.32-48.95-.56-22.64-1.54-45.26-1.91-67.91-.07-4.49-.56-8.98-.65-13.47-.07-3.47.27-3.88,3.61-3.87,14.65.05,29.3-.31,43.96.52,13.79.78,27.62,2.39,41.42,1.52,15.59-.99,31.29-.8,46.75-3.64,7.9-1.45,8.13-1.08,8.15,6.99.02,9.33.3,18.67-.1,27.99-.76,17.29-1.01,34.61-2.47,51.87-.63,7.45-.52,14.96-1.08,22.44-.74,9.79-.9,19.62-1.3,29.44-.03.83-.05,1.67-.14,2.49-.45,4.24-.6,4.27-4.81,4.72-6.49.69-12.96.2-19.45.06-19.32-.43-38.62.6-57.92,1.39-11.48.47-22.93,1.57-34.43,1.53-5.91-.02-10.74-2.67-16.37-5.01Z"/>
  <path class="cls-2" d="m37.7,171.89c3.1-2.55,6.52-3.16,9.72-3.19,12.84-.11,25.49-2.91,38.35-2.42,3.34.13,6.64.24,9.92.96,7.09,1.56,14.24,1.71,21.32.13,12.44-2.78,24.8-2.1,37.17.36,2.77.55,5.58.93,8.39,1.31,1.61.22,2.38-.41,2.46-2.22.31-6.49-.05-12.97-.07-19.46-.13-31.99-.08-63.98-.1-95.97,0-2.17.03-4.33-.06-6.5-.16-3.83-.48-4.25-4.44-4.32-6.5-.1-13.02-.32-19.49.13-7.17.51-14.32.38-21.47.41-19.83.06-39.66-.01-59.48.01-3.5,0-7,.06-10.49.35-5.09.42-5.41.98-5.77,6.12-1.36,19.63-1.15,39.28-1.07,58.94.04,11.67-1.17,23.27-2.25,34.86-.71,7.63-.3,15.32-1.44,22.92-.15.98-.09,2-.22,2.99-.08.65-.32,1.32-1.12,1.44-1,.15-1.59-.44-1.82-1.3-.21-.79-.26-1.64-.29-2.47-.3-10.49-.37-20.98-.93-31.46-.74-13.81-.61-27.64-1.17-41.45-.73-17.97-1.2-35.94-1.72-53.91-.04-1.5-.07-3,0-4.5.15-3.11.32-3.42,3.55-3.41,15.82.09,31.63-.36,47.46.63,11.45.72,22.94,1.96,34.43,1.42,16.78-.79,33.6-1.21,50.25-3.79.16-.03.33-.06.49-.08,6.67-.94,7.08-.61,7.07,6.2-.02,15.16.19,30.33-.21,45.48-.42,15.97-1.4,31.92-2.66,47.85-.66,8.29-.78,16.62-1.19,24.94-.3,5.99-.63,11.97-1.03,17.95-.21,3.11-.47,3.43-3.59,3.51-5.16.13-10.33.06-15.49.06-6.66,0-13.33.01-19.99,0-13.83-.05-27.62.8-41.42,1.65-11.8.73-23.62,1-35.44,1.37-4.66.14-11.32-2.23-16.16-5.57Z"/>
  <path class="cls-1" d="m597.45,313.67c-8.35,7.3-16.77,12.87-26.19,16.88-21.73,9.26-44.4,13.66-68.03,14.14-48.83.99-97.67.19-146.5,1.05-47.83.84-95.67.22-143.5.97-16.99.26-34,.11-50.98.77-18.74.73-37.05,4.21-54.74,10.52-8.03,2.87-15.44,7.08-22.81,11.32-2.68,1.54-5.45,2.39-8.57,2.17-5.04-.36-8.71-3.54-9.3-8.18-.53-4.17,1.83-7.74,6.59-9.31,14.57-4.8,29.41-8.54,44.42-11.72,10.93-2.31,21.88-4.5,32.96-5.73,12.41-1.38,24.86-2.51,37.39-2.34,10.67.14,21.35-.1,32,.29,26.14.97,52.3,1.3,78.44,2.14,11.99.38,24,.18,35.97.88,14.82.86,29.67.29,44.47,1.12,13.5.75,27,.24,40.47.91,15.32.75,30.67.29,45.98,1.09,13.66.71,27.32,1.06,40.98.79,20.78-.4,41.15-3.35,60.59-11.18,9.17-3.7,17.74-8.45,25.51-14.58,1.13-.89,2.09-2.19,4.83-1.99Z"/>
  <path class="cls-1" d="m369.39,210.85c-.1,2.83-2.05,4.29-3.68,5.83-11.27,10.64-22.7,21.1-35.32,30.16-.91.65-2.11,1.02-2.6,2.43,13.34,7.99,22.98,19.97,33.19,31.34,4.56,5.08,8.83,10.43,13.22,15.66.75.89,1.51,1.79,2.16,2.75,1.77,2.63,1.38,3.55-1.69,3.62-4,.1-8-.09-12,.06-2.28.09-3.63-.88-4.98-2.61-5.32-6.83-10.57-13.73-16.38-20.17-5.14-5.69-10.44-11.22-16.18-16.32-2.12-1.89-4.39-3.58-6.92-4.89-1.18-.61-2.39-1.15-3.76-1.28-2.63-.26-3.35.21-3.35,2.88,0,4.66.17,9.33.28,13.99.19,8.16.45,16.32.56,24.49.05,3.59-.2,3.78-3.57,3.87-3.16.09-6.34.09-9.5-.02-2.74-.1-3.22-.62-3.02-3.33,1.1-14.64.76-29.31.88-43.97.1-11.83-.21-23.66-.39-35.5-.03-1.99-.33-3.98-.53-5.97-.2-1.96.47-3.38,2.6-3.44,3.66-.11,7.33-.09,10.99-.02,2.25.04,2.6,1.64,2.54,3.49-.17,5-.13,10.01-.51,14.99-.41,5.33-.33,10.66-.32,15.99,0,3.49,1.22,4.16,4.27,2.27,2.4-1.49,4.71-3.17,6.83-5.03,10.14-8.92,19.73-18.41,28.36-28.8,1.81-2.17,3.61-3.19,6.33-3.02,4.1.26,8.26-.45,12.49.55Z"/>
  <path class="cls-1" d="m495,262.88c0,5.33.13,10.66-.03,15.98-.2,6.68.99,13.27,1.18,19.92.11,3.76.18,3.76-3.68,3.94-1.99.09-4,.11-5.98.33-2.12.23-3.4-.33-4.08-2.58-.92-3.05-1.13-3.08-3.95-1.55-10.39,5.64-21.39,6.9-32.9,4.78-9.26-1.71-14.68-7.13-16.41-16.41-.53-2.81-.78-5.6-.79-8.43-.02-5.33-.12-10.66.09-15.98.29-7.68-.81-15.28-.99-22.93-.11-4.35.05-4.51,4.33-4.69,2.83-.12,5.66-.12,8.49-.14,1.83-.01,2.77.92,2.68,2.78-.13,2.82-.24,5.65-.45,8.47-.91,11.99-.7,23.95,1.42,35.8,1.35,7.54,4.4,10.11,11.95,11.15,7.45,1.03,14.53-.18,21.39-3.15,2.25-.98,3.33-2.38,3.29-4.94-.24-15.14.39-30.3-.59-45.43-.25-3.76.16-4.32,4.01-4.53,2.49-.14,4.99-.19,7.49-.14,3.39.07,3.64.33,3.66,3.78.04,7.99.01,15.98.01,23.98h-.13Z"/>
  <path class="cls-1" d="m115.25,210.33c8.83,0,17.66-.05,26.48.02,4.69.04,5.28.77,4.81,5.24q-.64,6.12-7.07,6.07c-12.16-.11-24.32-.22-36.48-.32-1.17,0-2.33.01-3.5.02-1.68.02-2.28.71-2.08,2.5.83,7.63.46,15.31.58,22.96.08,5.24.07,5.3,5.12,5.29,8.66,0,17.32-.09,25.98-.14.83,0,1.67-.04,2.5-.01,3.21.12,3.4.18,3.4,3.48,0,8.27.56,7.18-6.69,7.16-8.33-.02-16.66-.11-24.98-.12-5.27,0-5.22.03-5.32,5.1-.17,8.83.39,17.64.75,26.46.05,1.16.07,2.33.09,3.5q.09,5.1-5.25,5.13c-2.33.01-4.67.07-7-.01-2.89-.11-3.2-.32-3.17-3.19.06-5.66.32-11.32.51-16.98.62-18.31.78-36.62-.05-54.93-.19-4.33-.38-8.65-.44-12.98-.05-3.88.23-4.13,4.31-4.24,3.5-.09,7-.03,10.49-.03,5.66,0,11.33,0,16.99,0h0Z"/>
  <path class="cls-1" d="m201.96,262.84c0-4.49-.08-8.99.03-13.48.05-2.07-.85-2.64-2.71-2.48-2.49.22-4.98.37-7.47.51-2.02.12-3.16-.78-3.12-2.91,0-.5,0-1,.01-1.5.3-8.2,1.09-6.9,7.07-6.69,7.32.25,7.39.18,7.57-7.37.07-2.83.04-5.66.2-8.49.19-3.24.72-3.94,3.74-4.17,3.11-.24,6.99-1.64,9.16.04,2.1,1.62.41,5.59.4,8.51,0,2.48-.46,4.96-.67,7.45-.31,3.67.04,4.13,3.67,4.1,4.66-.03,9.32-.21,13.98-.31,1.16-.03,2.33-.03,3.49.01,1.41.05,2.1.84,2.07,2.24,0,.17-.02.33-.04.5-1.06,8.65,1.7,8.89-8.82,8.52-3.99-.14-7.99-.16-11.98-.36-1.94-.1-2.8.75-2.83,2.57-.17,10.8-1.19,21.63.42,32.39.97,6.45,4.41,11.11,12.86,11.32,3.17.08,6.33.04,9.45-.55,1.79-.34,2.5.33,2.51,2.02,0,1,0,2-.06,2.99-.29,4.14-.85,4.73-4.87,5.66-6.11,1.41-12.21,1.28-18.31-.04-8.02-1.73-12.72-6.6-14.38-14.67-1.08-5.25-1.25-10.56-1.53-15.87-.17-3.32-.03-6.66-.03-9.99.06,0,.13,0,.19,0Z"/>
  <path class="cls-1" d="m390.42,255.36c0-9.65.2-19.31-.07-28.95-.17-6.3-.96-12.58-1.58-18.86-.38-3.86-.08-4.35,3.83-4.49,3.32-.11,6.64-.16,9.96-.51,2.62-.28,3.48.52,3.24,3.07-1.45,15.43-.98,30.92-1.33,46.38-.16,6.81.16,13.63.35,20.44.23,8.48.1,16.96.96,25.42.46,4.55,0,4.79-4.54,4.84-3,.03-6-.1-8.99.03-2.25.1-2.94-.89-2.8-2.98.36-5.64.81-11.29.91-16.94.15-9.15.04-18.3.04-27.46.01,0,.02,0,.03,0Z"/>
  <path class="cls-1" d="m174.13,267.83c.31,10.19.58,19.5.86,28.81.03,1,.01,2,.08,2.99.14,2.07-.71,3.08-2.87,3.04-2.99-.06-5.99.07-8.98,0-3.1-.07-3.52-.54-3.29-3.52.94-12.29.69-24.6.65-36.9-.02-7.49-.54-14.93-1.91-22.31-.66-3.55-.12-4.22,3.24-4.68,2.96-.41,5.93-.75,8.91-1.03,3.71-.35,4.19,0,4.13,3.56-.13,8.48-.37,16.96-.59,25.44-.05,1.83-.19,3.65-.24,4.6Z"/>
  <path class="cls-2" d="m130.42,49.16c-9.69.05-15.46,5.76-19.78,13.6-.16.29-.21.63-.35.93-.49,1.01-.72,2.65-2.14,2.33-1.74-.39-1.3-2.02-1.03-3.33.07-.32.17-.66.34-.93,4.89-7.78,10.39-14.81,20.56-15.52,3.48-.24,6.99-.18,10.49-.08,2.5.07,3.32,1.04,3,3.48-.35,2.65-1.19,5.22-2.53,7.54-1.92,3.31-3.98,6.54-6.1,9.72-1.23,1.84-3.04,3.14-5.08,3.92-3.11,1.18-6.29,2.17-9.46,3.16-1.46.46-3.05.52-4.39-.27-2.43-1.44-4.4-.8-6.35.9-.6.52-1.43.84-2.2,1.08-.86.27-1.66-.02-2.15-.83-.6-.99.03-1.64.81-1.99,8.06-3.66,12.96-11.38,20.39-15.84,1.7-1.02,3.18-2.41,4.79-3.59,1.16-.85,2.63-2.47,3.83-1.09,1.36,1.57-.68,2.59-1.75,3.44-3.26,2.59-6.61,5.06-9.91,7.59-1.72,1.31-3.48,2.58-5.08,4.02-.82.74-1.84,1.76-1.03,3.02.61.95,1.82.88,2.75.57,3.16-1.04,6.3-2.15,9.41-3.34.74-.28,1.51-.87,1.95-1.52,2.57-3.88,5.34-7.67,7.47-11.78,1.9-3.66.77-5.03-3.46-5.17-1-.03-2,0-3,0Z"/>
  <path class="cls-1" d="m426.66,380.15c0-5.81-.05-11.61.03-17.42.02-1.51-.7-3.58,1.74-4.04,1.63-.31,2.31.81,2.32,4.05.04,7.48.03,14.97-.04,22.45-.01,1.55.48,3.53-1.82,4.1-2.25.56-3.32-1-4.34-2.58-3.7-5.72-7.38-11.46-11.11-17.16-.52-.79-.73-1.92-2.45-2.27,0,5.69.02,11.27-.01,16.85,0,1.32-.08,2.66-.31,3.95-.17.94-1.03,1.24-1.92,1.19-.96-.05-1.5-.58-1.55-1.57-.08-1.49-.22-2.99-.22-4.48-.03-6.82-.05-13.64-.02-20.46,0-1.61-.28-3.57,1.91-4.08,1.95-.46,3.06.95,4,2.37,3.21,4.86,6.39,9.73,9.58,14.6,1.07,1.63,2.14,3.27,3.21,4.9.33-.13.67-.27,1-.4Z"/>
  <path class="cls-1" d="m302.34,358.18c4.14.22,7.93,1.15,9.94,5.3.55,1.14,1.39,2.76.08,3.63-1.4.94-2.89.27-3.66-1.38-1.78-3.83-5.15-3.74-8.55-3.36-2.46.27-4.02,1.69-4.26,3.51-.27,2.02.67,3.41,3.33,4.27,2.84.93,5.82,1.44,8.63,2.43,4.57,1.6,6.45,4.58,6.09,9.1-.35,4.48-3.64,7.68-9.14,8.26-4.8.51-9.31-.42-12.5-4.58-.81-1.06-1.37-2.29-1.53-3.64-.1-.86.03-1.71.91-2.11.99-.44,2.02-.3,2.69.58.59.79.87,1.81,1.46,2.6,2.52,3.32,7.75,4.36,11.25,2.3,1.5-.88,2.64-2.06,2.66-3.93.02-2.09-1.11-3.46-2.97-4.18-1.54-.6-3.16-1.02-4.75-1.52-1.74-.54-3.54-.95-5.23-1.63-3.17-1.27-5.25-3.41-5.2-7.13.05-3.71,1.64-6.02,5.33-7.61,1.72-.74,3.52-.93,5.39-.93Z"/>
  <path class="cls-1" d="m255.5,388.78c-3.47,1.28-5.24.22-6.79-2.28-2.43-3.95-5.2-7.69-7.99-11.77-3.44,1.75-5.3,4.07-4.96,7.89.11,1.32.02,2.66-.03,3.99-.05,1.41-.27,2.77-2.15,2.68-1.88-.09-1.87-1.56-1.94-2.9-.05-1-.05-2-.05-3,0-6.5.02-12.99.03-19.49,0-.83,0-1.67.02-2.5.04-1.43.32-2.77,2.13-2.73,1.84.04,1.99,1.47,2,2.85.03,3.59,0,7.19.93,11.08,3.29-3.46,6.59-6.93,9.88-10.39.69-.72,1.38-1.45,2.08-2.15,1.57-1.58,3.35-2.04,5.67-.93-.47,2.52-2.7,3.62-4.14,5.31-1.94,2.27-5.48,3.81-5.84,6.59-.4,3.09,3,5.3,4.67,7.93,2.02,3.19,4.7,5.97,6.47,9.82Z"/>
  <path class="cls-1" d="m323.27,384.94c2.49.82,4.49.43,6.46.48,2.66.07,5.32,0,7.97.1,1.3.05,2.84.07,2.79,2.02-.05,1.91-1.53,1.9-2.87,1.9-5.81.02-11.63.09-17.44-.03-3.15-.06-4.16-1.83-2.4-4.56,2.06-3.2,4.57-6.11,6.9-9.14,3.12-4.07,6.25-8.13,9.76-12.69-2.83-.92-5.26-.42-7.61-.52-2.15-.1-4.31-.1-6.46-.25-.92-.06-1.45-.73-1.47-1.69-.02-.94.43-1.59,1.34-1.82.64-.16,1.31-.24,1.97-.25,4.82-.03,9.64-.14,14.45-.02,3.86.09,4.82,1.88,2.58,5.06-2.96,4.21-6.23,8.19-9.34,12.29-2.19,2.89-4.65,5.58-6.62,9.1Z"/>
  <path class="cls-1" d="m168.27,223.91c-5.14.05-8.78-2.86-9.33-7.32-.52-4.2,2.54-8.36,7.03-9.55,3.34-.88,6.68-.89,9.53,1.23,2.53,1.88,3.97,4.53,3.22,7.82-.83,3.66-3.01,6.26-6.69,7.34-1.26.37-2.63.35-3.76.48Z"/>
  <path class="cls-1" d="m372.53,373.66c0-3.65-.02-7.3.01-10.95,0-.98.11-1.98.33-2.94.15-.7.8-1.01,1.5-1.06.71-.04,1.31.25,1.7.83.77,1.18.62,2.55.63,3.86.02,5.97-.04,11.95.04,17.92.05,3.79.28,3.98,3.92,4.11,1.99.07,3.98-.02,5.97.02.99.02,2.01.05,2.96.29,1.15.29,1.43,1.29,1.35,2.36-.07,1.06-.89,1.31-1.75,1.31-4.64.01-9.29,0-13.93-.01-2.25,0-2.72-1.45-2.72-3.31,0-4.15,0-8.29,0-12.44h0Z"/>
  <path class="cls-1" d="m396.11,373.87c0-3.48-.02-6.96,0-10.45,0-1.15.01-2.32.21-3.45.16-.91.96-1.31,1.86-1.33.89-.02,1.72.33,1.99,1.19.29.93.43,1.94.44,2.92.04,7.47.03,14.94.03,22.41,0,.33,0,.66-.03,1-.11,1.51-.07,3.21-2.26,3.1-1.85-.09-1.87-1.63-1.89-2.95-.05-4.15-.02-8.3-.02-12.45-.12,0-.23,0-.35,0Z"/>
  <path class="cls-2" d="m100.89,72.88c-1.32-1.19-1.29-2.05-1.26-2.86.12-3.06-1.05-5.15-4.19-5.88-.48-.11-.92-.38-1.35-.63-2.35-1.34-3.14-3.04-2.26-4.81.71-1.43,2.67-1.85,4.89-1.04,3.72,1.34,6.51,6.04,5.81,10.07-.28,1.59-.97,3.1-1.63,5.14Z"/>
  <path class="cls-5" d="m504.81,36.37c-.04-3.66-.45-3.99-4.01-4.16-1.91-.09-3.91.37-5.83-.86,1.01-3.21,3.09-5.39,4.97-7.68,1.07-1.3,2.1-2.62,2.64-4.21.82-2.39-.67-3.96-3.16-3.38-.64.15-1.26.45-1.83.78-6.8,3.87-13.88,7.38-18.59,14.01-.92,1.29-1.99,2.09-3.65,2.27-9.96,1.08-19.94,1.5-29.92.65-8.3-.71-16.57-1.6-24.91-1.52-10,.1-20.01-.25-29.99.21-5.81.27-9.78-1.46-12.79-6.5-2.21-3.69-5.27-6.88-8.54-9.73-1.29-1.12-3.06-1.79-4.56-.56-1.3,1.07-.17,2.5.27,3.67.76,2.02,1.72,3.97,2.61,5.94.88,1.96,1.92,3.87,2.44,6.7-1.84.09-3.31.17-4.78.24-4.14.22-4.38.47-4.57,4.73-.02.5-.05,1-.04,1.5.67,29.79-1.67,59.63,1.94,89.36.56,4.62.45,9.3-.83,13.89-.58,2.07-.9,4.24-.47,6.43.87,4.46.71,8.95.39,13.45-.23,3.32-.24,6.64.41,9.96.94,4.79,2.62,7.46,9.35,8.87,4.42.93,8.89,1.17,13.41,1.11,6-.07,12.03-.3,17.99.2,11.65.96,23.31.56,34.97.75,1.84.03,3.8.08,5.29-1.12,4.05-3.23,8.64-2.85,13.35-2.43,10.29.92,20.59,1.52,30.93,1.32,3.69-.07,7.23-.59,10.49-2.66,1.46-.93,2.02-1.91,2.26-3.52,2.19-14.34,3.23-28.81,3.64-43.27.7-24.64.81-49.3,1.13-73.96.09-6.83.1-13.66.02-20.5Zm-94.93,132.17c-.28.79-1.39.85-2.22.88-1.66.06-3.33.06-4.99.06-6.81-.01-13.61-.51-20.33,1.45-2.65.77-5.62.55-8.45.52-3.61-.04-4.1-.5-4.17-4.05-.22-10.65-.1-21.28,1.47-31.88,1.54-10.39,1.98-20.91,1.19-31.38-.79-10.52-.53-20.98.75-31.39.78-6.32.79-12.61.86-18.94.02-2.09-.24-4.31,1.78-6.06,1.8,1.12,2.33,2.88,2.96,4.55,1.07,2.85,2.66,5.33,4.81,7.51,5.22,5.29,8.78,11.7,11.81,18.38,4.55,10.02,7.26,20.75,11.3,30.95,4.03,10.16,4.64,20.7,4.84,31.36.11,5.69.82,11.29,1.8,16.85.78,4.42-2.14,7.53-3.42,11.21Zm45.92-86.69c-.38,1.1-.77,2.21-1.22,3.28-3.84,9.05-5.37,18.42-4.87,28.28.42,8.48.13,16.99-1.82,25.35-.57,2.46-.17,4.96.62,7.39,1.45,4.45,2.28,9.04,2.76,13.68.21,1.98.21,3.99.15,5.98-.06,2.13-1.19,3.51-3.4,3.52-7.33.04-14.6,1.49-21.95.91-3.74-.29-4.17-.72-4.32-4.59-.14-3.67.01-7.33,1.15-10.88,1.09-3.41,1.19-6.89.58-10.38-.5-2.82-.65-5.65-.38-8.47.44-4.51-.04-8.98-.23-13.46-.19-4.38-1.05-8.57-3.19-12.47-2.34-4.26-3.58-8.74-4.18-13.68-.92-7.43-3.81-14.48-6.84-21.34-3.77-8.52-6.88-17.37-12.35-25.06-.57-.8-.98-1.76-.59-2.81.69-.64,1.55-.57,2.36-.57,13.66-.03,27.31-.35,40.97-.81,7.3-.25,14.64.49,21.95.99,5.84.4,6.01.73,4.54,6.26-2.6,9.84-6.44,19.27-9.73,28.88Zm37.38,79.59c.58,3.29.66,6.54.24,9.99-5.14.09-9.79-1.4-14.61-1.54-3.8-.11-7.61-.63-11.43-.83-4.38-.24-5.1-.97-5.95-5.17-.2-.98-.42-1.97-.41-2.96.04-7.51-.89-14.92-1.71-22.37-.32-2.9.39-5.95.89-8.89,1.17-6.9,2.08-13.83,1.78-20.84-.26-6.01,1.16-11.57,4.13-16.7,2.1-3.63,3.69-7.46,5.05-11.38,3.6-10.41,8.44-20.26,13.37-30.08.52-1.04,1.1-2.06,1.79-2.99.91-1.25,2.27-1.27,3.63-.98,1.46.31,1.6,1.51,1.63,2.71.04,1.33.07,2.66.06,3.99-.03,11.98.03,23.97-.15,35.95-.14,9.68.97,19.24,1.85,28.84.79,8.59,1.15,17.2-.5,25.85-1.09,5.71-.67,11.62.35,17.39Z"/>
  <path class="cls-3" d="m666.69,35.18c0-3.45-.61-3.82-4.23-3.94-3.69-.13-7.31.46-10.9,1.13-9.89,1.83-19.75,2.94-29.65.08-13.66-.16-27.36-.87-40.95.3-9.74.84-19.29-.33-28.88-.84-8.66-.46-17.3-.2-25.94-.49-2.36-.08-3.31,1.13-3.28,3.36.02,1.33-.02,2.66-.02,4,.02,12.99.08,25.98.07,38.97,0,4.32-.07,8.63-.87,12.93-.64,3.43-.6,6.96.98,10.29.95,2.02.87,4.22.87,6.38.01,8.33,0,16.65,0,24.98h-.1c0,8.16.1,16.32-.03,24.48-.1,5.94,1.36,11.52,3.19,17.07.71,2.16,2.21,3.33,4.43,3.4,3.05.1,5.88,1.06,8.75,1.92,3.05.91,6.16,1.28,9.36,1.24,12.49-.13,24.98-.15,37.47-.22,2-.01,4,0,5.99-.16,11.94-.93,23.85-2.04,35.85-1.87,9.31.13,18.6-1.23,27.93-.84.17,0,.33-.01.5-.03,3.21-.27,3.72-.57,4.35-3.69,1.84-9.12,4.16-18.18,3.15-27.64-.19-1.81-.07-3.66-.07-5.49,0-25.3-.25-50.61,1.08-75.89.24-4.65-.15-9.36.42-13.97.63-5.16.54-10.3.53-15.45Zm-12.42,126.11c.33,2.94.95,5.84,1.63,9.9-8.35-3.17-16.05-2.85-23.69-2.75-5.19.07-10.27-.93-15.42-1.09-2.66-.08-3.16-.85-2.57-3.57.56-2.6,1.36-5.15,2.17-7.69.65-2.07,1.14-4.13,1.33-6.32.5-5.81-.86-10.92-5.17-15.02-4.19-3.98-6.72-9.07-9.47-14.01-1.05-1.9-1.95-3.92-3.58-5.38-4.86-4.34-7.25-10.29-10.35-15.77-1.06-1.87-1.66-4.01-2.7-5.9-2.28-4.12-4.03-8.42-4.32-13.15-.53-8.61-1.72-17.29,1.62-25.66.25-.62.43-1.26.6-1.91.25-.97.53-2.03-.27-2.83-1.07-1.07-2.19-.35-3.19.21-5.72,3.16-8.77,8.49-11.26,14.2-1.06,2.44-1.87,4.99-2.65,7.54-1.24,4-3.69,7-7.11,9.34-2.19,1.5-4.39,3.03-6.4,4.76-3.56,3.07-3.49,5.59,0,8.63.75.65,1.56,1.26,2.23,1.99,1.21,1.31,1.33,2.83-.08,3.95-2.35,1.87-3.26,3.7-.89,6.22,1.19,1.27.46,2.46-.57,3.48-1.33,1.32-1.26,2.63.03,3.91,1.9,1.9,1.91,4.11,1.18,6.49-.24.79-.47,1.61-.56,2.43-.41,3.78.96,6.07,4.67,7.15,5.05,1.47,10.24,1.09,15.36.39,2.49-.34,4.97-.45,7.46-.53,2.38-.07,4.4.73,5.5,2.79,3.69,6.87,9.23,12.53,12.38,19.82,1.99,4.61,1.76,9.08,1.38,13.69-.21,2.52-2.32,3.81-5.66,3.63-2.81-.16-5.64-.59-8.39-1.19-2.47-.54-4.94-.68-7.44-.68-7,0-13.99.06-20.99,0-5.51-.05-10.99.24-16.38,1.46-2.96.67-5.96.52-8.96.46-2.02-.05-3.03-1.09-3.04-3.13-.02-2.66-.15-5.32.54-7.95,1.18-4.53,1.29-9.18,1.61-13.84,1.15-16.64.51-33.29.95-49.93.17-6.14,1.01-12.25,1.53-18.38.17-1.99.42-3.99.36-5.97-.23-7.18.75-14.29.99-21.44.1-3.13.67-3.67,3.75-4.29,2.61-.52,5.22-.99,7.91-.95,8.98.14,17.95-.26,26.94.73,9.8,1.08,19.66.03,29.39-1.18,7.1-.88,13.92.35,20.85.83,7.97.56,15.93,1.28,23.82-.75.96-.25,1.95-.47,2.94-.52,2.57-.13,3.37.5,3.5,3.04.12,2.32.2,4.69-.1,6.99-1.32,9.96-.66,19.96-.83,29.94-.15,8.99.07,17.99-.14,26.99-.15,6.54.7,12.95,1.67,19.36.48,3.19.37,6.21-.81,9.3-2.76,7.22-2.16,14.73-1.31,22.2Z"/>
  <path class="cls-4" d="m249.86,152.72c-4.7-1.34-9.25-3.22-13.4-5.99-12.46-8.31-20.74-19.62-23.85-34.35-3.7-17.5.02-33.28,11.56-47.14,11.57-13.91,26.58-20.01,44.39-19.72,2.97.05,5.96.59,8.89,1.14,2.84.54,3.46,1.38,3.01,4.12-1.63,10.01-3.32,20.01-5.11,29.99-.55,3.06-1.11,3.43-4.46,3.46-8.32.07-16.65.03-24.97.03-1.33,0-2.67-.05-3.99.04-3.15.2-3.74.85-3.22,4.09.73,4.6,1.6,9.17,2.48,13.74,3.01,15.67,6.06,31.34,9.07,47.01.21,1.11.65,2.28-.41,3.58Z"/>
  <path class="cls-4" d="m290.71,51.85c4.36.77,7.55,3.91,10.75,6.62,9.42,7.96,16.12,17.91,18.33,30.16,3.8,21.05-1.59,39.19-18.09,53.58-5.12,4.47-10.81,7.74-17.14,9.99-3.51,1.25-3.9.85-3.3-2.61,3.46-19.84,6.91-39.68,10.37-59.52.11-.66.19-1.32.25-1.98.31-3.34.26-3.39-2.89-3.79-4.4-.55-4.44-.57-3.7-4.89,1.41-8.2,2.86-16.39,4.31-24.59.17-.96.08-2.02,1.11-2.96Z"/>
  <path class="cls-1" d="m590.12,261.14c-1.44-12.99-11.05-24.28-23.78-27.15-9.08-2.05-18.22-1.7-27.02,1.66-2.61.99-4.99,2.58-7.93,4.14,0-3.4-.05-6.22,0-9.04.18-8.16.47-16.32.59-24.48.05-3.59-.52-3.98-4.12-3.71-2.16.16-4.31.37-6.47.44-6.27.2-6.45.31-5.7,6.65,1.13,9.59,1.86,19.21,1.85,28.87-.03,19.65.51,39.31-.75,58.94-.06.99-.03,2,.03,2.99.08,1.35.78,2.29,2.19,2.17,4.03-.35,8.33,1.41,12.05-1.47.85-.66,1.56-.13,2.28.22,7.82,3.78,16.18,3.71,24.49,3.06,6.02-.47,11.78-2.4,16.69-6.11,12.38-9.35,17.3-21.88,15.6-37.18Zm-16.6,17.11c-2.98,8.63-8.52,14.66-17.84,16.3-7.19,1.26-14.26.91-20.9-2.62-1.74-.93-2.79-2.07-2.74-4.26.18-8.17-1.22-16.28-.97-24.46,0-3.17.11-6.34-.03-9.5-.11-2.43.99-4.01,2.73-5.54,5.93-5.23,24.76-7.62,33.28.48,4.23,4.02,6.99,8.84,7.57,14.77.49,5.01.58,10.02-1.08,14.83Z"/>
  <path class="cls-2" d="m144.5,110.18c-.52-7.05-3.03-13.56-5.46-20.15-3.06-8.3-18.09-16.42-27.22-11.83-.98.49-2.15,1.36-3.24.37-1.7-1.55-3.35-1.02-5.06-.17-1.6.79-3.22.53-4.89.24-5.25-.89-10.5-1.81-15.88-1.53-5.68.29-10.9,1.86-14.92,6.03-5.53,5.73-9.76,12.29-11,20.33-.71,4.6-1.5,9.22-1.14,14.44-.95,7.1,1.51,13.91,4.94,20.53,1.33,2.56,3.25,4.62,4.97,6.86,11.96,15.61,30.07,18.29,46.76,13.9,3.73-.98,7.07-2.86,9.92-5.59,2.4-2.3,4.91-4.51,7.48-6.63,5.16-4.25,8.67-9.63,10.95-15.84,2.47-6.76,4.34-13.69,3.8-20.97Zm-12.24,27.23c-1.41,2.3-3.27,4.19-5.29,5.94-1.51,1.31-3.23,2.41-4.56,3.88-6.32,6.92-14.34,9.29-23.14,9.06-24.09,1.23-42.44-22.52-38.95-44.32.45-2.79.9-5.58,1.42-8.35,1.3-6.98,4.94-12.75,9.96-17.5,4.36-4.12,10.09-4.81,15.86-4.41,2.64.19,5.23.94,7.86,1.34,3.46.53,6.93.96,10.33-.41,1.06-.43,2.11-.92,3.07.43,1.15,1.63,2.57.85,3.99.2,7.07-3.23,16.78-.2,20.62,6.81,8.74,15.94,8.36,31.78-1.16,47.34Z"/>
  <path class="cls-1" d="m283.45,363.48c-2.72-3.44-6.22-5.49-10.79-5.24-6.6-.03-11.78,3.51-13.5,9.71-1.21,4.38-1.26,8.9.38,13.27,3.6,9.56,16.77,11.91,23.45,4.2,4.83-5.58,5.11-16.05.45-21.94Zm-1.86,15.52c-1.37,4.41-4.87,7.24-9.02,7.22-4.43-.02-8.23-2.96-9.39-7.47-.41-1.58-.4-3.27-.45-3.76,0-3,.14-4.78.81-6.54,1.58-4.14,4.27-6.18,8.57-6.29,4.53-.12,7.14,1.57,8.98,5.67,1.64,3.67,1.7,7.37.52,11.16Z"/>
  <path class="cls-1" d="m367.95,385.38c-3.09-8.09-6.29-16.14-9.46-24.2-.57-1.46-1.34-2.65-3.19-2.66-2.07,0-2.87,1.3-3.48,2.97-2.35,6.41-4.81,12.78-7.07,19.23-.92,2.63-2.35,5.14-2.56,8.1,2.35,1.12,3.9.7,4.66-1.85.43-1.43.92-2.85,1.46-4.25.36-.92.8-1.96,1.93-2.1,3.48-.44,7.07-.8,10.4.2,2.26.67,2.02,3.61,2.96,5.5.07.15.11.31.17.47.62,1.74,1.67,3.14,3.68,2.38,2.12-.8.97-2.58.5-3.8Zm-10.11-9.08c-6.88.83-7.34.27-5.09-6.19.65-1.87,1.32-3.73,2.42-6.82,1.52,4.84,3.4,8.35,4.16,12.29-.63.31-1.04.67-1.49.72Z"/>
  <path class="cls-5" d="m449.19,75.75c.25,2.64-.74,4.46-2.4,5.92-2.5,2.2-5.09,4.3-8.05,5.86-2.55,1.35-5.27,1.81-8.2,1.39-3.71-.53-7.05-1.87-10.16-3.87-2.76-1.78-4.68-4.09-5.26-7.5-.84-4.97-.93-9.89.02-14.85,1.46-7.65,6.87-11.86,14.24-12.52,7.69-.69,15.24.77,20.92,6.98,2.74,2.99,3.2,6.49,2.19,10.24-.51,1.91-1.94,2.21-3.35.87-.99-.94-1.59-2.12-2.05-3.38-1.57-4.28-4.67-6.74-9.08-7.62-.49-.1-.96-.28-1.44-.41-7.12-1.88-10.44-.45-13.45,6.31-1.49,3.33-2.29,6.94-2.19,10.67.1,3.53,1.8,6.01,5.07,7.28,5.21,2.02,10.29,2.31,15.18-1.11,2.39-1.67,4.86-3.31,8.02-4.27Z"/>
  <path class="cls-3" d="m609.54,95.64c-1.35-3.73-3.58-5.36-4.89-7.68-2.39-4.25-2.12-6.76,1.22-10.34,1.02-1.09,2.17-2.08,3.08-3.26.87-1.13,1.18-2.48-.21-3.51-1.52-1.13-3.91-.57-4.7,1.04-.14.29-.18.64-.26.96-1.41,5.81-5.79,7.71-11.07,8.34-1.66.2-3.39.23-4.39-1.57-.87-1.57-.62-4.79.56-6.13.66-.74,1.53-1.29,2.23-2,2.65-2.66,2.56-2.7.68-6.14-1.79-3.26-.88-6.82-.7-10.26.06-1.17,1.17-1.47,2.22-1.59,4.6-.52,9.38,2.28,11.22,6.61.45,1.07.78,2.21,1.34,3.22.57,1.01,1.36,2.1,2.76,1.48,1.11-.49,1-1.62.81-2.61-.26-1.31-.6-2.6-.91-3.89-1.48-6.19.93-10.57,6.85-12.5,1.33-.43,2.25.08,3.03,1.08,1.35,1.74,2.15,3.68,2.52,5.89.54,3.17,1.2,4.91,5.16,4.68,1.69-.1,3.36.41,4.65,1.53,1.12.97,2.26,2.05,3,3.31.89,1.52-.97,2.24-1.47,3.38-.2.45-.37.94-.43,1.43-.41,3.05-2.23,4.52-5.15,5.3-2.85.76-3.22,1.76-1.94,4.35.82,1.66,1.58,3.32,1.82,5.14.38,2.92-.65,4.39-3.47,5.14-.64.17-1.34.35-1.97.26-5.74-.88-9.12,2-11.57,8.38Z"/>
  <path class="cls-2" d="m72.56,104.19c-.7-6.25,3.19-9.87,7.37-13.31.54-.44,1.24-.49,1.83-.06.66.48.51,1.17.26,1.8-.56,1.44-1.61,2.53-2.79,3.44-2.88,2.23-4.11,5.09-3.63,8.7.04.33.08.67.03.99-.23,1.64.92,4.49-1.49,4.46-2.14-.03-1.35-2.92-1.59-4.63-.07-.49-.01-.99-.01-1.39Z"/>
</svg>