<?xml version="1.0" encoding="UTF-8"?>
<svg id="happy" data-name="Warstwa 2" xmlns="http://www.w3.org/2000/svg" viewBox="0 0 144.44 167.47">
  <defs>
    <style>
      .cls-1 {
        fill: #35b3c9;
      }
    </style>
  </defs>
  <g id="Warstwa_1-2" data-name="Warstwa 1">
    <g>
      <path class="cls-1" d="m144.39,21.34c-.04-3.66-.45-3.99-4.01-4.16-1.91-.09-3.91.37-5.83-.86,1.01-3.21,3.09-5.39,4.97-7.68,1.07-1.3,2.1-2.62,2.64-4.21.82-2.39-.67-3.96-3.16-3.38-.64.15-1.26.45-1.83.78-6.8,3.87-13.88,7.38-18.59,14.01-.92,1.29-1.99,2.09-3.65,2.27-9.96,1.08-19.94,1.5-29.92.65-8.3-.71-16.57-1.6-24.91-1.52-10,.1-20.01-.25-29.99.21-5.81.27-9.78-1.46-12.79-6.5-2.21-3.69-5.27-6.88-8.54-9.73C7.48.1,5.71-.57,4.21.66c-1.3,1.07-.17,2.5.27,3.67.76,2.02,1.72,3.97,2.61,5.94.88,1.96,1.92,3.87,2.44,6.7-1.84.09-3.31.17-4.78.24-4.14.22-4.38.47-4.57,4.73-.02.5-.05,1-.04,1.5.67,29.79-1.67,59.63,1.94,89.36.56,4.62.45,9.3-.83,13.89-.58,2.07-.9,4.24-.47,6.43.87,4.46.71,8.95.39,13.45-.23,3.32-.24,6.64.41,9.96.94,4.79,2.62,7.46,9.35,8.87,4.42.93,8.89,1.17,13.41,1.11,6-.07,12.03-.3,17.99.2,11.65.96,23.31.56,34.97.75,1.84.03,3.8.08,5.29-1.12,4.05-3.23,8.64-2.85,13.35-2.43,10.29.92,20.59,1.52,30.93,1.32,3.69-.07,7.23-.59,10.49-2.66,1.46-.93,2.02-1.91,2.26-3.52,2.19-14.34,3.23-28.81,3.64-43.27.7-24.64.81-49.3,1.13-73.96.09-6.83.1-13.66.02-20.5ZM49.46,153.5c-.28.79-1.39.85-2.22.88-1.66.06-3.33.06-4.99.06-6.81-.01-13.61-.51-20.33,1.45-2.65.77-5.62.55-8.45.52-3.61-.04-4.1-.5-4.17-4.05-.22-10.65-.1-21.28,1.47-31.88,1.54-10.39,1.98-20.91,1.19-31.38-.79-10.52-.53-20.98.75-31.39.78-6.32.79-12.61.86-18.94.02-2.09-.24-4.31,1.78-6.06,1.8,1.12,2.33,2.88,2.96,4.55,1.07,2.85,2.66,5.33,4.81,7.51,5.22,5.29,8.78,11.7,11.81,18.38,4.55,10.02,7.26,20.75,11.3,30.95,4.03,10.16,4.64,20.7,4.84,31.36.11,5.69.82,11.29,1.8,16.85.78,4.42-2.14,7.53-3.42,11.21Zm45.92-86.69c-.38,1.1-.77,2.21-1.22,3.28-3.84,9.05-5.37,18.42-4.87,28.28.42,8.48.13,16.99-1.82,25.35-.57,2.46-.17,4.96.62,7.39,1.45,4.45,2.28,9.04,2.76,13.68.21,1.98.21,3.99.15,5.98-.06,2.13-1.19,3.51-3.4,3.52-7.33.04-14.6,1.49-21.95.91-3.74-.29-4.17-.72-4.32-4.59-.14-3.67.01-7.33,1.15-10.88,1.09-3.41,1.19-6.89.58-10.38-.5-2.82-.65-5.65-.38-8.47.44-4.51-.04-8.98-.23-13.46-.19-4.38-1.05-8.57-3.19-12.47-2.34-4.26-3.58-8.74-4.18-13.68-.92-7.43-3.81-14.48-6.84-21.34-3.77-8.52-6.88-17.37-12.35-25.06-.57-.8-.98-1.76-.59-2.81.69-.64,1.55-.57,2.36-.57,13.66-.03,27.31-.35,40.97-.81,7.3-.25,14.64.49,21.95.99,5.84.4,6.01.73,4.54,6.26-2.6,9.84-6.44,19.27-9.73,28.88Zm37.38,79.59c.58,3.29.66,6.54.24,9.99-5.14.09-9.79-1.4-14.61-1.54-3.8-.11-7.61-.63-11.43-.83-4.38-.24-5.1-.97-5.95-5.17-.2-.98-.42-1.97-.41-2.96.04-7.51-.89-14.92-1.71-22.37-.32-2.9.39-5.95.89-8.89,1.17-6.9,2.08-13.83,1.78-20.84-.26-6.01,1.16-11.57,4.13-16.7,2.1-3.63,3.69-7.46,5.05-11.38,3.6-10.41,8.44-20.26,13.37-30.08.52-1.04,1.1-2.06,1.79-2.99.91-1.25,2.27-1.27,3.63-.98,1.46.31,1.6,1.51,1.63,2.71.04,1.33.07,2.66.06,3.99-.03,11.98.03,23.97-.15,35.95-.14,9.68.97,19.24,1.85,28.84.79,8.59,1.15,17.2-.5,25.85-1.09,5.71-.67,11.62.35,17.39Z"/>
      <path class="cls-1" d="m88.77,60.72c.25,2.64-.74,4.46-2.4,5.92-2.5,2.2-5.09,4.3-8.05,5.86-2.55,1.35-5.27,1.81-8.2,1.39-3.71-.53-7.05-1.87-10.16-3.87-2.76-1.78-4.68-4.09-5.26-7.5-.84-4.97-.93-9.89.02-14.85,1.46-7.65,6.87-11.86,14.24-12.52,7.69-.69,15.24.77,20.92,6.98,2.74,2.99,3.2,6.49,2.19,10.24-.51,1.91-1.94,2.21-3.35.87-.99-.94-1.59-2.12-2.05-3.38-1.57-4.28-4.67-6.74-9.08-7.62-.49-.1-.96-.28-1.44-.41-7.12-1.88-10.44-.45-13.45,6.31-1.49,3.33-2.29,6.94-2.19,10.67.1,3.53,1.8,6.01,5.07,7.28,5.21,2.02,10.29,2.31,15.18-1.11,2.39-1.67,4.86-3.31,8.02-4.27Z"/>
    </g>
  </g>
</svg>