<?xml version="1.0" encoding="UTF-8"?>
<svg id="shake" data-name="Warstwa 2" xmlns="http://www.w3.org/2000/svg" viewBox="0 0 144.02 149.58">
  <defs>
    <style>
      .cls-1 {
        fill: #6cbe35;
      }
    </style>
  </defs>
  <g id="Warstwa_1-2" data-name="Warstwa 1">
    <g>
      <path class="cls-1" d="m5.83,144.57c3.29-3.35,6.95-3.89,10.5-4.04,6.49-.27,12.96-.71,19.44-1.21,3.65-.28,7.3-.58,10.95-.89,6.32-.54,12.68-.46,18.9.92,7.48,1.66,14.91,1.34,22.29-.36,9.59-2.2,19.11-2.14,28.74-.2,4.05.82,8.17,1.58,12.38,1.43,3.71-.13,3.81-.18,3.98-4.04.04-1,.02-2,.02-3,.01-18.16.04-36.32.03-54.48,0-19.81-.04-39.62-.1-59.43-.02-5.84-.07-5.9-5.74-5.9-33.99-.01-67.98-.02-101.97.05-3.48,0-6.96.6-10.44.9-1.79.15-2.74,1.03-2.68,2.88.01.5-.02,1-.03,1.5-.18,20.65-1.66,41.28-1.05,61.94.29,9.67-.87,19.28-1.72,28.9-.78,8.78-1.61,17.58-1.56,26.42,0,1.32-.18,2.65-.46,3.94-.14.63-.75,1.07-1.52,1.03-.73-.03-1.39-.35-1.53-1.03-.24-1.13-.36-2.3-.37-3.45-.1-16.32-.92-32.63-1.32-48.95-.56-22.64-1.54-45.26-1.91-67.91C.59,15.12.1,10.63,0,6.14c-.07-3.47.27-3.88,3.61-3.87,14.65.05,29.3-.31,43.96.52,13.79.78,27.62,2.39,41.42,1.52,15.59-.99,31.29-.8,46.75-3.64,7.9-1.45,8.13-1.08,8.15,6.99.02,9.33.3,18.67-.1,27.99-.76,17.29-1.01,34.61-2.47,51.87-.63,7.45-.52,14.96-1.08,22.44-.74,9.79-.9,19.62-1.3,29.44-.03.83-.05,1.67-.14,2.49-.45,4.24-.6,4.27-4.81,4.72-6.49.69-12.96.2-19.45.06-19.32-.43-38.62.6-57.92,1.39-11.48.47-22.93,1.57-34.43,1.53-5.91-.02-10.74-2.67-16.37-5.01Z"/>
      <path class="cls-1" d="m57.11,129.67c-4.7-1.34-9.25-3.22-13.4-5.99-12.46-8.31-20.74-19.62-23.85-34.35-3.7-17.5.02-33.28,11.56-47.14,11.57-13.91,26.58-20.01,44.39-19.72,2.97.05,5.96.59,8.89,1.14,2.84.54,3.46,1.38,3.01,4.12-1.63,10.01-3.32,20.01-5.11,29.99-.55,3.06-1.11,3.43-4.46,3.46-8.32.07-16.65.03-24.97.03-1.33,0-2.67-.05-3.99.04-3.15.2-3.74.85-3.22,4.09.73,4.6,1.6,9.17,2.48,13.74,3.01,15.67,6.06,31.34,9.07,47.01.21,1.11.65,2.28-.41,3.58Z"/>
      <path class="cls-1" d="m97.95,28.8c4.36.77,7.55,3.91,10.75,6.62,9.42,7.96,16.12,17.91,18.33,30.16,3.8,21.05-1.59,39.19-18.09,53.58-5.12,4.47-10.81,7.74-17.14,9.99-3.51,1.25-3.9.85-3.3-2.61,3.46-19.84,6.91-39.68,10.37-59.52.11-.66.19-1.32.25-1.98.31-3.34.26-3.39-2.89-3.79-4.4-.55-4.44-.57-3.7-4.89,1.41-8.2,2.86-16.39,4.31-24.59.17-.96.08-2.02,1.11-2.96Z"/>
    </g>
  </g>
</svg>