<?xml version="1.0" encoding="UTF-8"?>
<svg id="woman" data-name="Warstwa 2" xmlns="http://www.w3.org/2000/svg" viewBox="0 0 145.04 149.22">
  <defs>
    <style>
      .cls-1 {
        fill: #e60c87;
      }
    </style>
  </defs>
  <g id="Warstwa_1-2" data-name="Warstwa 1">
    <g>
      <path class="cls-1" d="m145.03,3.96c0-3.45-.61-3.82-4.23-3.94-3.69-.13-7.31.46-10.9,1.13-9.89,1.83-19.75,2.94-29.65.08-13.66-.16-27.36-.87-40.95.3-9.74.84-19.29-.33-28.88-.84C21.77.23,13.13.49,4.49.2,2.13.12,1.18,1.32,1.21,3.55c.02,1.33-.02,2.66-.02,4,.02,12.99.08,25.98.07,38.97,0,4.32-.07,8.63-.87,12.93-.64,3.43-.6,6.96.98,10.29.95,2.02.87,4.22.87,6.38.01,8.33,0,16.65,0,24.98h-.1c0,8.16.1,16.32-.03,24.48-.1,5.94,1.36,11.52,3.19,17.07.71,2.16,2.21,3.33,4.43,3.4,3.05.1,5.88,1.06,8.75,1.92,3.05.91,6.16,1.28,9.36,1.24,12.49-.13,24.98-.15,37.47-.22,2-.01,4,0,5.99-.16,11.94-.93,23.85-2.04,35.85-1.87,9.31.13,18.6-1.23,27.93-.84.17,0,.33-.01.5-.03,3.21-.27,3.72-.57,4.35-3.69,1.84-9.12,4.16-18.18,3.15-27.64-.19-1.81-.07-3.66-.07-5.49,0-25.3-.25-50.61,1.08-75.89.24-4.65-.15-9.36.42-13.97.63-5.16.54-10.3.53-15.45Zm-12.42,126.11c.33,2.94.95,5.84,1.63,9.9-8.35-3.17-16.05-2.85-23.69-2.75-5.19.07-10.27-.93-15.42-1.09-2.66-.08-3.16-.85-2.57-3.57.56-2.6,1.36-5.15,2.17-7.69.65-2.07,1.14-4.13,1.33-6.32.5-5.81-.86-10.92-5.17-15.02-4.19-3.98-6.72-9.07-9.47-14.01-1.05-1.9-1.95-3.92-3.58-5.38-4.86-4.34-7.25-10.29-10.35-15.77-1.06-1.87-1.66-4.01-2.7-5.9-2.28-4.12-4.03-8.42-4.32-13.15-.53-8.61-1.72-17.29,1.62-25.66.25-.62.43-1.26.6-1.91.25-.97.53-2.03-.27-2.83-1.07-1.07-2.19-.35-3.19.21-5.72,3.16-8.77,8.49-11.26,14.2-1.06,2.44-1.87,4.99-2.65,7.54-1.24,4-3.69,7-7.11,9.34-2.19,1.5-4.39,3.03-6.4,4.76-3.56,3.07-3.49,5.59,0,8.63.75.65,1.56,1.26,2.23,1.99,1.21,1.31,1.33,2.83-.08,3.95-2.35,1.87-3.26,3.7-.89,6.22,1.19,1.27.46,2.46-.57,3.48-1.33,1.32-1.26,2.63.03,3.91,1.9,1.9,1.91,4.11,1.18,6.49-.24.79-.47,1.61-.56,2.43-.41,3.78.96,6.07,4.67,7.15,5.05,1.47,10.24,1.09,15.36.39,2.49-.34,4.97-.45,7.46-.53,2.38-.07,4.4.73,5.5,2.79,3.69,6.87,9.23,12.53,12.38,19.82,1.99,4.61,1.76,9.08,1.38,13.69-.21,2.52-2.32,3.81-5.66,3.63-2.81-.16-5.64-.59-8.39-1.19-2.47-.54-4.94-.68-7.44-.68-7,0-13.99.06-20.99,0-5.51-.05-10.99.24-16.38,1.46-2.96.67-5.96.52-8.96.46-2.02-.05-3.03-1.09-3.04-3.13-.02-2.66-.15-5.32.54-7.95,1.18-4.53,1.29-9.18,1.61-13.84,1.15-16.64.51-33.29.95-49.93.17-6.14,1.01-12.25,1.53-18.38.17-1.99.42-3.99.36-5.97-.23-7.18.75-14.29.99-21.44.1-3.13.67-3.67,3.75-4.29,2.61-.52,5.22-.99,7.91-.95,8.98.14,17.95-.26,26.94.73,9.8,1.08,19.66.03,29.39-1.18,7.1-.88,13.92.35,20.85.83,7.97.56,15.93,1.28,23.82-.75.96-.25,1.95-.47,2.94-.52,2.57-.13,3.37.5,3.5,3.04.12,2.32.2,4.69-.1,6.99-1.32,9.96-.66,19.96-.83,29.94-.15,8.99.07,17.99-.14,26.99-.15,6.54.7,12.95,1.67,19.36.48,3.19.37,6.21-.81,9.3-2.76,7.22-2.16,14.73-1.31,22.2Z"/>
      <path class="cls-1" d="m87.89,64.42c-1.35-3.73-3.58-5.36-4.89-7.68-2.39-4.25-2.12-6.76,1.22-10.34,1.02-1.09,2.17-2.08,3.08-3.26.87-1.13,1.18-2.48-.21-3.51-1.52-1.13-3.91-.57-4.7,1.04-.14.29-.18.64-.26.96-1.41,5.81-5.79,7.71-11.07,8.34-1.66.2-3.39.23-4.39-1.57-.87-1.57-.62-4.79.56-6.13.66-.74,1.53-1.29,2.23-2,2.65-2.66,2.56-2.7.68-6.14-1.79-3.26-.88-6.82-.7-10.26.06-1.17,1.17-1.47,2.22-1.59,4.6-.52,9.38,2.28,11.22,6.61.45,1.07.78,2.21,1.34,3.22.57,1.01,1.36,2.1,2.76,1.48,1.11-.49,1-1.62.81-2.61-.26-1.31-.6-2.6-.91-3.89-1.48-6.19.93-10.57,6.85-12.5,1.33-.43,2.25.08,3.03,1.08,1.35,1.74,2.15,3.68,2.52,5.89.54,3.17,1.2,4.91,5.16,4.68,1.69-.1,3.36.41,4.65,1.53,1.12.97,2.26,2.05,3,3.31.89,1.52-.97,2.24-1.47,3.38-.2.45-.37.94-.43,1.43-.41,3.05-2.23,4.52-5.15,5.3-2.85.76-3.22,1.76-1.94,4.35.82,1.66,1.58,3.32,1.82,5.14.38,2.92-.65,4.39-3.47,5.14-.64.17-1.34.35-1.97.26-5.74-.88-9.12,2-11.57,8.38Z"/>
    </g>
  </g>
</svg>